<svg id="Layer_1" data-name="Layer 1" xmlns="http://www.w3.org/2000/svg" viewBox="0 0 125 68.44"><defs><style>.cls-1{font-size:9.81px;fill:#333;font-family:CenturyGothic, Century Gothic;}.cls-2{fill:#376bff;}.cls-3{fill:#202c6c;fill-rule:evenodd;}.cls-4{fill:#fff;}</style></defs><text class="cls-1" transform="translate(0 53.67)">International Technologies<tspan x="27.83" y="11.77">Private Limited</tspan></text><path class="cls-2" d="M2.83,14.67a2.93,2.93,0,0,1,2,.76,2.44,2.44,0,0,1,0,3.68,2.87,2.87,0,0,1-2,.77,2.91,2.91,0,0,1-2-.77A2.49,2.49,0,0,1,0,17.24a2.34,2.34,0,0,1,.83-1.81A2.88,2.88,0,0,1,2.83,14.67Zm-2.2,6.6,4.47,0,.08,16-4.47,0Z"/><path class="cls-2" d="M57.63,23.28l-2.76,2.49a4.92,4.92,0,0,0-3.07-1.49,2.06,2.06,0,0,0-1.17.3.83.83,0,0,0-.43.71.81.81,0,0,0,.28.59,4.75,4.75,0,0,0,1.33.74l1.64.73A9.72,9.72,0,0,1,57,29.68a4.26,4.26,0,0,1,1,2.79A4.39,4.39,0,0,1,56.27,36a7.14,7.14,0,0,1-4.67,1.45,7.78,7.78,0,0,1-6.23-2.71l2.74-2.71A6.28,6.28,0,0,0,50,33.39a4.63,4.63,0,0,0,1.88.5,2.47,2.47,0,0,0,1.43-.39,1.1,1.1,0,0,0,.53-.88c0-.62-.66-1.22-1.95-1.81l-1.51-.67C47.44,28.85,46,27.22,46,25.26A4.12,4.12,0,0,1,47.59,22a6.34,6.34,0,0,1,4.16-1.36,7.85,7.85,0,0,1,3.27.68A7,7,0,0,1,57.63,23.28Z"/><path class="cls-2" d="M72.39,23.22l-2.76,2.5a4.89,4.89,0,0,0-3.07-1.5,2.18,2.18,0,0,0-1.18.3.84.84,0,0,0-.42.71.83.83,0,0,0,.27.6,5.34,5.34,0,0,0,1.34.74l1.65.72a9.76,9.76,0,0,1,3.56,2.33,4.26,4.26,0,0,1,1,2.79A4.39,4.39,0,0,1,71,36a7.12,7.12,0,0,1-4.67,1.45,7.79,7.79,0,0,1-6.24-2.71L62.87,32a6.44,6.44,0,0,0,1.84,1.32,4.41,4.41,0,0,0,1.88.5A2.42,2.42,0,0,0,68,33.44a1.07,1.07,0,0,0,.53-.88c0-.62-.66-1.22-2-1.8l-1.51-.68c-2.89-1.29-4.34-2.91-4.35-4.88A4.09,4.09,0,0,1,62.35,22a6.3,6.3,0,0,1,4.17-1.36,7.68,7.68,0,0,1,3.26.67A7.09,7.09,0,0,1,72.39,23.22Z"/><path class="cls-2" d="M76.21,21l4.52,0,0,7.71a9.76,9.76,0,0,0,.36,3.12,2.73,2.73,0,0,0,1.12,1.36,3.42,3.42,0,0,0,1.87.47,3.53,3.53,0,0,0,1.9-.48,2.84,2.84,0,0,0,1.15-1.41,10.06,10.06,0,0,0,.27-3l0-7.83,4.47,0,0,6.78c0,2.79-.22,4.7-.71,5.73a6.39,6.39,0,0,1-2.63,2.9,8.86,8.86,0,0,1-4.46,1,8.52,8.52,0,0,1-4.74-1.16,6.3,6.3,0,0,1-2.57-3.27,18,18,0,0,1-.55-5.29Z"/><path class="cls-2" d="M95.31,20.89h3.83v2a4.4,4.4,0,0,1,1.65-1.81,4.22,4.22,0,0,1,2.25-.63,4.72,4.72,0,0,1,1.83.41l-1.38,3.46a3.43,3.43,0,0,0-1.29-.35,2,2,0,0,0-1.74,1.15c-.48.77-.71,2.27-.7,4.51l0,.78,0,6.47H95.39Z"/><path class="cls-2" d="M125,29.94l-14.37,0a4.18,4.18,0,0,0,1.68,2.71,5.62,5.62,0,0,0,3.45,1,6.31,6.31,0,0,0,4.3-1.6l3.78,1.58a8.62,8.62,0,0,1-3.37,2.66,11.4,11.4,0,0,1-4.66.88A9.83,9.83,0,0,1,109,34.88a7.68,7.68,0,0,1-2.67-5.94,7.93,7.93,0,0,1,2.6-6.09,9.37,9.37,0,0,1,6.58-2.45,9.73,9.73,0,0,1,6.86,2.4A8.23,8.23,0,0,1,125,29.17Zm-4.49-3.15a4.12,4.12,0,0,0-1.76-2.17,5.55,5.55,0,0,0-3-.82,5.75,5.75,0,0,0-3.28.95,5.46,5.46,0,0,0-1.63,2.08Z"/><path class="cls-2" d="M124.86,42.06H41.49l-.62-.92c-.45-.66-8.7-13-12.57-27.29C24.43,28.14,16.17,40.48,15.73,41.14l-.61.92H.5V38.23H12.69c2.57-4.07,12.66-21,13.3-36.38L26.06,0h4.48l.07,1.85c.63,15.4,10.72,32.31,13.3,36.38h81Z"/><path class="cls-3" d="M14.24,42.16l-.61-2.26c-.62-2.24-1.23-4.49-1.9-6.72a9.32,9.32,0,0,0-.89-2A4.66,4.66,0,0,0,8.54,29l6.14-4.55A15.07,15.07,0,0,1,18,31.91l.49-.45a85.22,85.22,0,0,1,10.87-8.62,75.89,75.89,0,0,1,13-6.82c3.78-1.55,7.67-2.86,11.58-4.12a.56.56,0,0,1,.32,0l-.45.24c-2.92,1.52-5.86,3-8.74,4.58A93.32,93.32,0,0,0,32.5,25,146.54,146.54,0,0,0,17.92,38.32C16.7,39.58,15.49,40.85,14.24,42.16Z"/><path class="cls-4" d="M13.94,43.34l-.28-1c-.09-.33-.17-.65-.26-1s-.23-.86-.35-1.29l-.48-1.72c-.45-1.64-.92-3.33-1.41-5a9.91,9.91,0,0,0-.85-1.84,4,4,0,0,0-2-1.92l-1-.41.84-.63,3.07-2.27c1-.76,2-1.52,3.07-2.27l.43-.32.36.4a14.29,14.29,0,0,1,3.25,6.68,84.83,84.83,0,0,1,10.69-8.44,76.08,76.08,0,0,1,13.1-6.86c4-1.65,8.14-3,11.63-4.14a1,1,0,0,1,.39-.07l.24,0,1.62.34-1.56.82-.37.19L51.42,14c-2,1-4,2.09-6,3.17a92.91,92.91,0,0,0-12.51,8.26A143.33,143.33,0,0,0,18.35,38.74c-.84.86-1.66,1.72-2.52,2.62-.39.4-.77.81-1.15,1.21ZM9.65,29a5.46,5.46,0,0,1,1.72,2A11.15,11.15,0,0,1,12.31,33c.49,1.67,1,3.37,1.42,5,.15.57.31,1.15.47,1.72.11.41.23.82.34,1.24l.42-.44c.87-.91,1.69-1.77,2.54-2.64A143.37,143.37,0,0,1,32.14,24.53a92.89,92.89,0,0,1,12.68-8.37c.91-.5,1.83-1,2.76-1.48-1.64.59-3.31,1.22-5,1.9a75.44,75.44,0,0,0-12.89,6.76,83.2,83.2,0,0,0-10.8,8.56l-.51.46-.77.67-.21-1a15.07,15.07,0,0,0-2.84-6.72L12,27.24Z"/></svg>