<svg id="Layer_1" data-name="Layer 1" xmlns="http://www.w3.org/2000/svg" xmlns:xlink="http://www.w3.org/1999/xlink" viewBox="0 0 125.49 50"><defs><style>.cls-1{fill:url(#linear-gradient);}.cls-2{fill:url(#linear-gradient-2);}.cls-3{fill:url(#linear-gradient-3);}.cls-4{fill:url(#linear-gradient-4);}.cls-5{fill:url(#linear-gradient-5);}.cls-6{fill:url(#linear-gradient-6);}.cls-7{fill:url(#linear-gradient-7);}.cls-8{fill:url(#linear-gradient-8);}.cls-9{font-size:12.61px;fill:#fff;font-family:KeepCalm-Medium, Keep Calm;font-weight:500;}</style><linearGradient id="linear-gradient" x1="42.09" y1="26.06" x2="118.24" y2="24.38" gradientUnits="userSpaceOnUse"><stop offset="0" stop-color="#ffe267"/><stop offset="1" stop-color="#b15b00"/></linearGradient><linearGradient id="linear-gradient-2" x1="42.1" y1="26.33" x2="118.24" y2="24.65" xlink:href="#linear-gradient"/><linearGradient id="linear-gradient-3" x1="42.16" y1="29.24" x2="118.31" y2="27.57" xlink:href="#linear-gradient"/><linearGradient id="linear-gradient-4" x1="42.11" y1="26.87" x2="118.26" y2="25.19" xlink:href="#linear-gradient"/><linearGradient id="linear-gradient-5" x1="42.12" y1="27.06" x2="118.26" y2="25.38" xlink:href="#linear-gradient"/><linearGradient id="linear-gradient-6" x1="42.12" y1="27.33" x2="118.27" y2="25.65" xlink:href="#linear-gradient"/><linearGradient id="linear-gradient-7" x1="42.13" y1="27.64" x2="118.27" y2="25.96" xlink:href="#linear-gradient"/><linearGradient id="linear-gradient-8" x1="0" y1="19.11" x2="40.98" y2="19.11" xlink:href="#linear-gradient"/></defs><path class="cls-1" d="M47.6,32.27a5.13,5.13,0,0,1-1.84-.33,4.57,4.57,0,0,1-2.48-2.3A3.91,3.91,0,0,1,42.9,28a4,4,0,0,1,.38-1.7,4.54,4.54,0,0,1,2.48-2.31,5.13,5.13,0,0,1,1.84-.33,4.93,4.93,0,0,1,2.18.5v-2a3,3,0,0,0-.28-1,2.22,2.22,0,0,0-.61-.7,1.72,1.72,0,0,0-1.14-.32,3,3,0,0,0-1.15.18,1.45,1.45,0,0,0-.62.41,1.25,1.25,0,0,1,.66.47,1.33,1.33,0,0,1,.24.78,1.31,1.31,0,0,1-.39.94,1.32,1.32,0,0,1-1.89,0,1.31,1.31,0,0,1-.39-.94s0-.15,0-.41a1.67,1.67,0,0,1,.39-.83,3,3,0,0,1,1.12-.82,5.52,5.52,0,0,1,2.3-.37,8.89,8.89,0,0,1,1.59.15,4.22,4.22,0,0,1,1.51.59,3.52,3.52,0,0,1,1.14,1.19,3.88,3.88,0,0,1,.45,2v7.41a1.06,1.06,0,0,0,.18.57.87.87,0,0,0,.54.36.23.23,0,0,1,.21.23V32c0,.17-.09.25-.26.25H49.78v-.5A4.93,4.93,0,0,1,47.6,32.27Zm0-8a1,1,0,0,0-.67.3,2.73,2.73,0,0,0-.54.79A5.46,5.46,0,0,0,46,26.52a7.37,7.37,0,0,0,0,2.86,5.56,5.56,0,0,0,.37,1.17,2.67,2.67,0,0,0,.54.78,1,1,0,0,0,.67.28l.48,0a1.45,1.45,0,0,0,.63-.22,1.94,1.94,0,0,0,.62-.6,3.24,3.24,0,0,0,.45-1.17v-3.3a3.24,3.24,0,0,0-.45-1.17,2.09,2.09,0,0,0-.62-.61,1.43,1.43,0,0,0-.63-.21Z"/><path class="cls-2" d="M70.65,31.71a.24.24,0,0,1,.18.26V32a.22.22,0,0,1-.25.25H66.27c-.17,0-.26-.08-.26-.25V32a.24.24,0,0,1,.18-.26.85.85,0,0,0,.55-.36,1,1,0,0,0,.2-.56V23.17a4.9,4.9,0,0,0-.22-1.55.92.92,0,0,0-1-.63,1.16,1.16,0,0,0-.66.18,1.61,1.61,0,0,0-.45.45,2.36,2.36,0,0,0-.28.6,3.16,3.16,0,0,0-.13.64v7.93a1.07,1.07,0,0,0,.19.56.87.87,0,0,0,.56.36.24.24,0,0,1,.2.26V32c0,.17-.08.25-.26.25H60.6c-.17,0-.26-.08-.26-.25V32a.24.24,0,0,1,.21-.26.8.8,0,0,0,.54-.36,1.05,1.05,0,0,0,.18-.56V23.17a4.9,4.9,0,0,0-.22-1.55.92.92,0,0,0-1-.63,1.12,1.12,0,0,0-.72.22,1.61,1.61,0,0,0-.46.54,2.25,2.25,0,0,0-.26.7,3.86,3.86,0,0,0-.08.72v7.69a.83.83,0,0,0,.2.53.89.89,0,0,0,.55.32.24.24,0,0,1,.2.26V32a.22.22,0,0,1-.25.25H54.93a.22.22,0,0,1-.25-.25V32a.23.23,0,0,1,.2-.26.85.85,0,0,0,.51-.32,1.06,1.06,0,0,0,.21-.53v-10a1.06,1.06,0,0,0-.21-.53.85.85,0,0,0-.51-.32.23.23,0,0,1-.2-.26v-.05a.22.22,0,0,1,.25-.25h3.64v1.33a4.24,4.24,0,0,1,1-.94,2.67,2.67,0,0,1,1.57-.42,3,3,0,0,1,2,.54A3.07,3.07,0,0,1,64,21.27a5.63,5.63,0,0,1,.38-.64,2.6,2.6,0,0,1,.56-.59,3.12,3.12,0,0,1,.79-.42,3,3,0,0,1,1-.17,3.31,3.31,0,0,1,1.65.36,2.56,2.56,0,0,1,1,.91,3.38,3.38,0,0,1,.44,1.21,7.76,7.76,0,0,1,.1,1.24v7.62a1,1,0,0,0,.19.56A.85.85,0,0,0,70.65,31.71Z"/><path class="cls-3" d="M76.63,32.25a3.64,3.64,0,0,1-1.72-.44v4.36a1.08,1.08,0,0,0,.19.57,1,1,0,0,0,.55.36.23.23,0,0,1,.21.25v0a.23.23,0,0,1-.26.26H71.27A.23.23,0,0,1,71,37.4v0a.23.23,0,0,1,.21-.25.87.87,0,0,0,.54-.36,1.06,1.06,0,0,0,.18-.57V20.94a1.06,1.06,0,0,0-.18-.57.87.87,0,0,0-.54-.36.24.24,0,0,1-.21-.25v-.05a.23.23,0,0,1,.26-.26h3.64v.44a3.64,3.64,0,0,1,1.72-.44,3.6,3.6,0,0,1,1.83.5A4.72,4.72,0,0,1,80,21.32a7.19,7.19,0,0,1,1,2,8.63,8.63,0,0,1,0,5,7,7,0,0,1-1,2,4.94,4.94,0,0,1-1.49,1.36A3.6,3.6,0,0,1,76.63,32.25ZM76.32,20.4a1,1,0,0,0-.78.38,3.85,3.85,0,0,0-.63,1.06V30a3,3,0,0,0,.6.93,1.11,1.11,0,0,0,.81.35,1,1,0,0,0,.72-.42,4.09,4.09,0,0,0,.65-1.17A9,9,0,0,0,78.17,28a11.88,11.88,0,0,0,.18-2.12,12.07,12.07,0,0,0-.18-2.13A9.07,9.07,0,0,0,77.69,22,4,4,0,0,0,77,20.82,1,1,0,0,0,76.32,20.4Z"/><path class="cls-4" d="M92.56,19.73v.05a.23.23,0,0,1-.21.23.93.93,0,0,0-.55.36,1,1,0,0,0-.19.57v9.87a1,1,0,0,0,.19.57.93.93,0,0,0,.55.36.23.23,0,0,1,.21.23V32c0,.17-.09.25-.26.25H88.63V30.89a3.81,3.81,0,0,1-1,.95,2.8,2.8,0,0,1-1.61.43,3.66,3.66,0,0,1-1.76-.36,2.63,2.63,0,0,1-1-.91,3.22,3.22,0,0,1-.48-1.2,6.9,6.9,0,0,1-.11-1.25V20.94a1.06,1.06,0,0,0-.18-.57.87.87,0,0,0-.54-.36.23.23,0,0,1-.21-.23v-.05c0-.17.09-.25.26-.25h4.33c.17,0,.26.08.26.25v.05a.23.23,0,0,1-.2.23,1,1,0,0,0-.56.36,1.08,1.08,0,0,0-.19.57v7.61a3.43,3.43,0,0,0,.31,1.57,1.06,1.06,0,0,0,1,.61,1.41,1.41,0,0,0,1.15-.46,2.27,2.27,0,0,0,.51-1V20.94a1.06,1.06,0,0,0-.18-.57.87.87,0,0,0-.54-.36.23.23,0,0,1-.2-.23v-.05c0-.17.08-.25.26-.25H92.3C92.47,19.48,92.56,19.56,92.56,19.73Z"/><path class="cls-5" d="M100.28,22.37a1.25,1.25,0,0,1,.38-.94,1.28,1.28,0,0,1,1-.39.89.89,0,0,0-.36-.36,1.56,1.56,0,0,0-.77-.15,2.38,2.38,0,0,0-1.62.54,3.46,3.46,0,0,0-.93,1.28,5.92,5.92,0,0,0-.44,1.51,9.75,9.75,0,0,0-.11,1.26v5.69a1,1,0,0,0,.19.57.93.93,0,0,0,.55.36.23.23,0,0,1,.21.23V32c0,.17-.09.25-.26.25H93.74c-.18,0-.26-.08-.26-.25V32a.23.23,0,0,1,.2-.23.87.87,0,0,0,.54-.36,1.06,1.06,0,0,0,.18-.57V20.94a1.06,1.06,0,0,0-.18-.57.87.87,0,0,0-.54-.36.23.23,0,0,1-.2-.23v-.05c0-.17.08-.25.26-.25h3.64v1.07l.16-.14a3.78,3.78,0,0,1,.57-.37,5.66,5.66,0,0,1,.88-.38,3.39,3.39,0,0,1,1.13-.18,3.32,3.32,0,0,1,1.34.23,2.52,2.52,0,0,1,.87.61,2.31,2.31,0,0,1,.47.87,3.32,3.32,0,0,1,.14,1,1.67,1.67,0,0,1-.38,1,1.17,1.17,0,0,1-1,.49,1.28,1.28,0,0,1-1-.39A1.26,1.26,0,0,1,100.28,22.37Z"/><path class="cls-6" d="M109.53,31.71a.8.8,0,0,0,.54-.36,1.05,1.05,0,0,0,.18-.56V23.17a3.73,3.73,0,0,0-.29-1.55,1,1,0,0,0-1-.63,1.46,1.46,0,0,0-.84.22,1.74,1.74,0,0,0-.54.54,2.09,2.09,0,0,0-.3.7,3.22,3.22,0,0,0-.09.72v7.62a1,1,0,0,0,.2.56.85.85,0,0,0,.55.36.24.24,0,0,1,.2.26V32a.22.22,0,0,1-.25.25h-4.34a.22.22,0,0,1-.25-.25V32a.23.23,0,0,1,.2-.26.8.8,0,0,0,.54-.36,1.05,1.05,0,0,0,.18-.56V20.94a1.06,1.06,0,0,0-.18-.57.87.87,0,0,0-.54-.36.23.23,0,0,1-.2-.25v-.05c0-.17.08-.26.25-.26h3.64V21a4.66,4.66,0,0,1,1-1,2.85,2.85,0,0,1,1.68-.47,3.66,3.66,0,0,1,1.76.36,2.61,2.61,0,0,1,1,.91,3.41,3.41,0,0,1,.46,1.21,6.84,6.84,0,0,1,.12,1.24v7.62a1,1,0,0,0,.19.56.85.85,0,0,0,.55.36.24.24,0,0,1,.21.26V32c0,.17-.09.25-.26.25h-4.33c-.18,0-.26-.08-.26-.25V32A.24.24,0,0,1,109.53,31.71Z"/><path class="cls-7" d="M119.28,32.27a5,5,0,0,1-1.83-.33A4.37,4.37,0,0,1,116,31a4.52,4.52,0,0,1-1-1.37,3.9,3.9,0,0,1-.37-1.69,4,4,0,0,1,.37-1.7,4.45,4.45,0,0,1,1-1.38,4.37,4.37,0,0,1,1.49-.93,5,5,0,0,1,1.83-.33,4.93,4.93,0,0,1,2.18.5v-2a2.81,2.81,0,0,0-.28-1,2.31,2.31,0,0,0-.6-.7,1.77,1.77,0,0,0-1.15-.32,3.08,3.08,0,0,0-1.15.18,1.45,1.45,0,0,0-.62.41,1.18,1.18,0,0,1,.66.47,1.37,1.37,0,0,1-.14,1.72,1.31,1.31,0,0,1-1,.4,1.29,1.29,0,0,1-1-.4,1.31,1.31,0,0,1-.39-.94s0-.15,0-.41a1.77,1.77,0,0,1,.39-.83,3,3,0,0,1,1.13-.82,5.47,5.47,0,0,1,2.29-.37,8.89,8.89,0,0,1,1.59.15,4.34,4.34,0,0,1,1.52.59A3.52,3.52,0,0,1,124,21.41a3.88,3.88,0,0,1,.45,2v7.41a1,1,0,0,0,.17.57.87.87,0,0,0,.54.36.23.23,0,0,1,.21.23V32c0,.17-.09.25-.26.25h-3.64v-.5A4.93,4.93,0,0,1,119.28,32.27Zm0-8a1,1,0,0,0-.67.3,2.73,2.73,0,0,0-.54.79,6.09,6.09,0,0,0-.37,1.16,7.37,7.37,0,0,0,0,2.86,6.21,6.21,0,0,0,.37,1.17,2.67,2.67,0,0,0,.54.78,1,1,0,0,0,.67.28l.49,0a1.54,1.54,0,0,0,.63-.22,2,2,0,0,0,.61-.6,2.92,2.92,0,0,0,.45-1.17v-3.3a2.92,2.92,0,0,0-.45-1.17,2.2,2.2,0,0,0-.61-.61,1.51,1.51,0,0,0-.63-.21Z"/><path class="cls-8" d="M40.92,25.43c-.23-2.1-.75-5.41-8.45-12.18-.93-1.21-3.4-3.83-3.4-6.39,0-1.63,1.26-5.32,4.66-5.32A2.64,2.64,0,0,1,36.56,4,2.89,2.89,0,0,0,36,5.69,2.12,2.12,0,0,0,37,7.6c.3,4.47,1.5,4.9,1.5,4.9a18.27,18.27,0,0,1-.09-4.77,2.46,2.46,0,0,0,2-2.64A6.39,6.39,0,0,0,33.76,0C33,0,27.12,1.14,27,6.86c0,1.21.68,4.85,4.45,9.17s4.91,5.73,4.91,7.38c0,1.27-.9,4.16-5,4.16-1.4,0-14.37-4-11.57-26.37,0,0-5.6,2-4.41,10.82.43,1.93.35,6.74,9.12,15,0,0-11-6-10.8-18.89,0,0-8.22,13.49,11.57,21.64,0,0-12.88-2.86-14.81-13.62,0,0-3.54,6.59,5,12.26,1.93,1.3,3.61,3.17,12.32,3.73,0,0-5.59,1.93-12.77-3.07-2.34-1.49-9.57-8.25-15-1.4,0,0,3.78-2.42,12.92,5.88,1.54,1.17,9.62,8.21,21.84,2.29C35.93,35.13,41.62,31.21,40.92,25.43Z"/><text class="cls-9" transform="translate(42.9 46.12)">eCommerce</text></svg>